HIERARCHY
ROOT SpineBase
{
  OFFSET 0.000000 0.000000 0.000000
  CHANNELS 6 Xposition Yposition Zposition Zrotation Xrotation Yrotation
  JOINT SpineMid
  {
    OFFSET 0.000000 33.808760 0.000000
    CHANNELS 3 Zrotation Xrotation Yrotation
    JOINT SpineShoulder
    {
      OFFSET -0.277643 25.049041 -0.944817
      CHANNELS 3 Zrotation Xrotation Yrotation
      JOINT Neck
      {
        OFFSET -0.212559 8.266477 -0.672014
        CHANNELS 3 Zrotation Xrotation Yrotation
        JOINT Head
        {
          OFFSET 1.359383 12.737028 5.895909
          CHANNELS 3 Zrotation Xrotation Yrotation
          End Site
          {
            OFFSET 0 0 0
          }
        }
      }
      JOINT ShoulderLeft
      {
        OFFSET -17.055336 -8.734547 -3.037853
        CHANNELS 3 Zrotation Xrotation Yrotation
        JOINT ElbowLeft
        {
          OFFSET -4.288265 -26.005099 1.631603
          CHANNELS 3 Zrotation Xrotation Yrotation
          JOINT WristLeft
          {
            OFFSET 0.788783 -21.011804 7.503005
            CHANNELS 3 Zrotation Xrotation Yrotation
            JOINT HandLeft
            {
              OFFSET 1.140273 -4.479109 1.168961
              CHANNELS 3 Zrotation Xrotation Yrotation
              JOINT HandTipLeft
              {
                OFFSET 1.385068 -3.414154 -0.755911
                CHANNELS 3 Zrotation Xrotation Yrotation
                End Site
                {
                  OFFSET 0 0 0
                }
              }
              JOINT ThumbLeft
              {
                OFFSET 1.947568 0.598251 0.070039
                CHANNELS 3 Zrotation Xrotation Yrotation
                End Site
                {
                  OFFSET 0 0 0
                }
              }
            }
          }
        }
      }
      JOINT ShoulderRight
      {
        OFFSET 13.556188 -6.963144 -8.424299
        CHANNELS 3 Zrotation Xrotation Yrotation
        JOINT ElbowRight
        {
          OFFSET 7.502861 -24.932968 1.208602
          CHANNELS 3 Zrotation Xrotation Yrotation
          JOINT WristRight
          {
            OFFSET 0.706943 -21.355235 5.623992
            CHANNELS 3 Zrotation Xrotation Yrotation
            JOINT HandRight
            {
              OFFSET -0.803740 -2.729811 -0.664844
              CHANNELS 3 Zrotation Xrotation Yrotation
              JOINT HandTipRight
              {
                OFFSET -3.240883 -2.471500 -4.829624
                CHANNELS 3 Zrotation Xrotation Yrotation
                End Site
                {
                  OFFSET 0 0 0
                }
              }
              JOINT ThumbRight
              {
                OFFSET -6.075999 -1.999071 -9.143609
                CHANNELS 3 Zrotation Xrotation Yrotation
                End Site
                {
                  OFFSET 0 0 0
                }
              }
            }
          }
        }
      }
    }
  }
  JOINT HipLeft
  {
    OFFSET -7.882281 0.911338 -2.480192
    CHANNELS 3 Zrotation Xrotation Yrotation
    JOINT KneeLeft
    {
      OFFSET -0.426122 -34.769992 -3.241447
      CHANNELS 3 Zrotation Xrotation Yrotation
      JOINT AnkleLeft
      {
        OFFSET -0.669378 -36.531578 1.499332
        CHANNELS 3 Zrotation Xrotation Yrotation
        JOINT FootLeft
        {
          OFFSET -0.629195 12.575223 -5.294386
          CHANNELS 3 Zrotation Xrotation Yrotation
          End Site
          {
            OFFSET 0 0 0
          }
        }
      }
    }
  }
  JOINT HipRight
  {
    OFFSET 5.398250 1.848270 -4.507485
    CHANNELS 3 Zrotation Xrotation Yrotation
    JOINT KneeRight
    {
      OFFSET 1.973091 -28.386647 -3.564885
      CHANNELS 3 Zrotation Xrotation Yrotation
      JOINT AnkleRight
      {
        OFFSET 1.174717 -34.371275 -1.557829
        CHANNELS 3 Zrotation Xrotation Yrotation
        JOINT FootRight
        {
          OFFSET -0.350449 13.978263 -4.755632
          CHANNELS 3 Zrotation Xrotation Yrotation
          End Site
          {
            OFFSET 0 0 0
          }
        }
      }
    }
  }
}
MOTION
Frames: 9
Frame Time: 0.033333
83.112534 72.385883 233.868831 -0.265801 -0.305557 8.630548 0.308647 0.262207 -8.631963 -0.000000 0.000000 0.000000 0.206689 -1.181493 0.032720 0.000000 0.000000 0.000000 -0.000000 0.000000 0.000000 -0.000000 0.000000 0.000000 -4.830923 -4.879261 -2.708827 -5.304483 5.516689 5.856383 0.000000 0.000000 0.000000 0.000000 0.000000 0.000000 -0.000000 0.000000 0.000000 -2.828980 0.822571 -0.699518 24.212814 -15.787891 3.433705 22.240325 -35.011166 19.769109 0.000000 0.000000 0.000000 0.000000 0.000000 0.000000 0.308647 0.262207 -8.631963 1.425970 1.489258 0.012714 -171.904760 -68.764860 -174.071949 0.000000 0.000000 0.000000 -0.079255 -1.253749 -8.724126 0.655958 2.330404 0.073272 2.406788 0.096131 1.024183 0.000000 0.000000 0.000000
83.092908 72.386403 233.851379 -0.276304 -0.317309 8.588804 0.320597 0.272482 -8.590331 -0.000000 0.000000 0.000000 0.208522 -1.132339 0.026518 0.000000 0.000000 0.000000 -0.000000 0.000000 0.000000 0.577694 -0.663017 0.184325 -6.940237 -4.019404 -3.231791 -2.362909 4.658206 5.282973 0.000000 0.000000 0.000000 0.000000 0.000000 0.000000 -0.000000 0.000000 0.000000 -2.917230 1.014827 -0.711243 22.888338 -14.068953 2.663352 13.986649 -29.233063 11.781695 0.000000 0.000000 0.000000 0.000000 0.000000 0.000000 0.320597 0.272482 -8.590331 1.600781 1.296170 0.023861 165.718863 -56.261048 158.096389 0.000000 0.000000 0.000000 -0.099579 -1.350550 -8.688661 0.711800 2.411336 0.073430 2.480797 -0.103515 1.064045 0.000000 0.000000 0.000000
83.076607 72.386528 233.841574 -0.285525 -0.339835 8.545091 0.332855 0.293632 -8.546791 -0.000000 0.000000 0.000000 0.246323 -1.065295 0.001976 0.000000 0.000000 0.000000 -0.000000 0.000000 0.000000 0.565198 -0.694378 0.178763 -7.128316 -3.581698 -3.158260 -0.527610 4.089325 4.571298 0.000000 0.000000 0.000000 0.000000 0.000000 0.000000 -0.000000 0.000000 0.000000 -2.847942 1.251136 -0.680158 19.765591 -11.573905 1.728637 11.769999 -26.662613 8.515536 0.000000 0.000000 0.000000 0.000000 0.000000 0.000000 0.332855 0.293632 -8.546791 1.719605 1.293878 0.027474 141.186397 -40.475191 122.269092 0.000000 0.000000 0.000000 -0.015785 -1.284950 -8.648271 0.652402 2.320588 0.077663 2.407454 -0.448884 1.038486 0.000000 0.000000 0.000000
83.073252 72.383430 233.840140 -0.282167 -0.371177 8.513670 0.334014 0.325308 -8.515532 -0.000000 0.000000 0.000000 0.291372 -0.987196 -0.027117 0.000000 0.000000 0.000000 -0.000000 0.000000 0.000000 -0.000000 0.000000 0.000000 -5.995035 -4.718854 -3.022333 -0.251929 3.076923 3.648253 0.000000 0.000000 0.000000 0.000000 0.000000 0.000000 -0.000000 0.000000 0.000000 -2.615301 1.556772 -0.604407 15.373125 -9.239635 1.132126 8.381277 -20.937313 4.103650 0.000000 0.000000 0.000000 0.000000 0.000000 0.000000 0.334014 0.325308 -8.515532 1.548419 1.338857 0.020943 109.837611 -22.492510 76.775283 0.000000 0.000000 0.000000 0.035845 -1.210444 -8.618187 0.064719 1.563087 0.099469 3.252263 -0.481901 1.105965 0.000000 0.000000 0.000000
83.081875 72.378759 233.844524 -0.266239 -0.407489 8.486549 0.323466 0.363732 -8.488522 -0.000000 0.000000 0.000000 0.331998 -0.929384 -0.052007 0.000000 0.000000 0.000000 -0.000000 0.000000 0.000000 -0.000000 0.000000 0.000000 -4.630139 -5.563985 -2.844337 0.710642 4.813507 3.238601 0.000000 0.000000 0.000000 0.000000 0.000000 0.000000 -0.000000 0.000000 0.000000 -2.573941 1.749626 -0.583514 11.879381 -5.843043 0.256920 7.040904 -17.912444 1.991203 0.000000 0.000000 0.000000 0.000000 0.000000 0.000000 0.323466 0.363732 -8.488522 1.125114 1.472464 0.004741 61.323939 3.239847 27.494946 0.000000 0.000000 0.000000 0.026506 -1.081111 -8.582816 0.078051 1.472976 0.091432 3.226019 -0.950963 1.096866 0.000000 0.000000 0.000000
83.083374 72.372376 233.842127 -0.255730 -0.435717 8.467854 0.317111 0.393304 -8.469915 -0.000000 0.000000 0.000000 0.363721 -0.907643 -0.068888 0.000000 0.000000 0.000000 -0.000000 0.000000 0.000000 -0.000000 0.000000 0.000000 -2.767616 -5.938543 -2.361402 -2.172080 5.696200 3.559225 0.000000 0.000000 0.000000 0.000000 0.000000 0.000000 -0.000000 0.000000 0.000000 -2.607528 1.825090 -0.587762 8.700499 -1.758436 -0.631327 6.551313 -16.685899 1.965804 0.000000 0.000000 0.000000 0.000000 0.000000 0.000000 0.317111 0.393304 -8.469915 0.845137 2.390991 -0.026794 45.089083 -5.509162 22.546925 0.000000 0.000000 0.000000 0.172809 -0.852511 -8.562869 -0.042800 1.253414 0.092843 2.899467 -0.675064 0.984195 0.000000 0.000000 0.000000
83.087952 72.365092 233.837176 -0.244410 -0.460095 8.457062 0.309426 0.419142 -8.459175 -0.000000 0.000000 0.000000 0.398662 -0.897098 -0.086015 0.000000 0.000000 0.000000 -0.000000 0.000000 0.000000 -0.000000 0.000000 0.000000 -1.351992 -6.462270 -2.051784 -2.647505 5.867311 2.961098 0.000000 0.000000 0.000000 0.000000 0.000000 0.000000 -0.000000 0.000000 0.000000 -2.697328 1.683685 -0.617969 6.720181 2.876632 -1.657192 4.538063 -14.888089 1.842493 0.000000 0.000000 0.000000 0.000000 0.000000 0.000000 0.309426 0.419142 -8.459175 0.859304 2.604611 -0.032035 37.612442 -10.759879 19.859626 0.000000 0.000000 0.000000 0.312455 -0.636624 -8.551704 -0.160008 1.043577 0.093992 2.254719 0.227465 0.768546 0.000000 0.000000 0.000000
83.092567 72.358310 233.830709 -0.233084 -0.473547 8.442862 0.300093 0.434188 -8.444963 -0.000000 0.000000 0.000000 0.441589 -0.947603 -0.100046 0.000000 0.000000 0.000000 -0.000000 0.000000 0.000000 -0.000000 0.000000 0.000000 0.292519 -6.742223 -1.599089 -4.288019 5.120019 2.287062 0.000000 0.000000 0.000000 0.000000 0.000000 0.000000 -0.000000 0.000000 0.000000 -2.618004 1.477330 -0.609439 4.407410 5.597501 -1.884650 3.710065 -13.269462 2.020674 0.000000 0.000000 0.000000 0.000000 0.000000 0.000000 0.300093 0.434188 -8.444963 0.525342 2.725903 -0.040938 29.541098 -16.821244 16.255577 0.000000 0.000000 0.000000 0.206526 -0.660182 -8.530006 -0.069798 1.096142 0.085527 2.268796 1.148881 0.780299 0.000000 0.000000 0.000000
83.100493 72.353268 233.823143 -0.218309 -0.480396 8.427361 0.286365 0.443210 -8.429383 -0.000000 0.000000 0.000000 0.466893 -1.020386 -0.103532 0.000000 0.000000 0.000000 -0.814738 0.259551 -0.091979 -0.010191 0.100609 -0.186858 2.441716 -8.086563 -1.128553 -9.947009 6.139191 3.980796 0.000000 0.000000 0.000000 0.000000 0.000000 0.000000 -0.000000 0.000000 0.000000 -2.688449 1.301770 -0.636895 4.280536 5.867465 -1.842174 1.087531 -9.846876 1.828685 0.000000 0.000000 0.000000 0.000000 0.000000 0.000000 0.286365 0.443210 -8.429383 0.421101 2.828486 -0.045000 19.567725 -27.935380 11.418135 0.000000 0.000000 0.000000 0.063276 -0.718874 -8.505878 0.048766 1.182297 0.075454 2.580817 1.727495 0.886611 0.000000 0.000000 0.000000
